HIERARCHY
ROOT Hips
{
	OFFSET 0.000000 0.000000 0.990480
	CHANNELS 6 Xposition Yposition Zposition Xrotation Yrotation Zrotation
	JOINT Spine
	{
		OFFSET 0.000000 0.000000 0.099820
		CHANNELS 6 Xposition Yposition Zposition Xrotation Yrotation Zrotation
		JOINT Chest
		{
			OFFSET 0.000000 0.000000 0.152175
			CHANNELS 6 Xposition Yposition Zposition Xrotation Yrotation Zrotation
			JOINT Neck
			{
				OFFSET 0.000000 0.000000 0.337083
				CHANNELS 6 Xposition Yposition Zposition Xrotation Yrotation Zrotation
				JOINT Head
				{
					OFFSET 0.000000 0.000000 0.150550
					CHANNELS 3 Xrotation Yrotation Zrotation
					End Site
					{
						OFFSET 0.000000 0.000000 0.164719
					}
				}
			}
			JOINT RightShoulder
			{
				OFFSET -0.043277 0.000000 0.228616
				CHANNELS 6 Xposition Yposition Zposition Xrotation Yrotation Zrotation
				JOINT RightArm
				{
					OFFSET -0.105461 0.000000 0.000004
					CHANNELS 6 Xposition Yposition Zposition Xrotation Yrotation Zrotation
					JOINT RightForeArm
					{
						OFFSET -0.247377 0.000000 0.000009
						CHANNELS 6 Xposition Yposition Zposition Xrotation Yrotation Zrotation
						JOINT RightHand
						{
							OFFSET -0.262149 0.000000 0.000009
							CHANNELS 6 Xposition Yposition Zposition Xrotation Yrotation Zrotation
							JOINT RightHandIndex1
							{
								OFFSET -0.082535 -0.029415 0.000003
								CHANNELS 3 Xrotation Yrotation Zrotation
								JOINT RightHandIndex2
								{
									OFFSET -0.033301 -0.004409 0.000001
									CHANNELS 3 Xrotation Yrotation Zrotation
									End Site
									{
										OFFSET -0.025492 -0.003784 0.000001
									}
								}
							}
							JOINT RightHandMiddle1
							{
								OFFSET -0.088557 -0.008155 0.000003
								CHANNELS 3 Xrotation Yrotation Zrotation
								JOINT RightHandMiddle2
								{
									OFFSET -0.034042 -0.001186 0.000001
									CHANNELS 3 Xrotation Yrotation Zrotation
									End Site
									{
										OFFSET -0.026773 -0.000599 0.000000
									}
								}
							}
							JOINT RightHandRing1
							{
								OFFSET -0.085632 0.009333 0.000003
								CHANNELS 3 Xrotation Yrotation Zrotation
								JOINT RightHandRing2
								{
									OFFSET -0.029113 0.002339 0.000001
									CHANNELS 3 Xrotation Yrotation Zrotation
									End Site
									{
										OFFSET -0.027037 0.001866 0.000001
									}
								}
							}
							JOINT RightHandPinky1
							{
								OFFSET -0.076599 0.027405 0.000003
								CHANNELS 3 Xrotation Yrotation Zrotation
								JOINT RightHandPinky2
								{
									OFFSET -0.032445 0.007645 0.000002
									CHANNELS 3 Xrotation Yrotation Zrotation
									End Site
									{
										OFFSET -0.019101 0.004136 0.000001
									}
								}
							}
							JOINT RightHandThumb1
							{
								OFFSET -0.018894 -0.029252 0.000001
								CHANNELS 3 Xrotation Yrotation Zrotation
								JOINT RightHandThumb2
								{
									OFFSET -0.024834 -0.023384 0.000001
									CHANNELS 3 Xrotation Yrotation Zrotation
									End Site
									{
										OFFSET -0.024730 -0.013883 0.000001
									}
								}
							}
						}
					}
				}
			}
			JOINT LeftShoulder
			{
				OFFSET 0.043336 0.000000 0.228616
				CHANNELS 6 Xposition Yposition Zposition Xrotation Yrotation Zrotation
				JOINT LeftArm
				{
					OFFSET 0.105402 0.000000 0.000018
					CHANNELS 6 Xposition Yposition Zposition Xrotation Yrotation Zrotation
					JOINT LeftForeArm
					{
						OFFSET 0.248086 -0.001017 0.000042
						CHANNELS 6 Xposition Yposition Zposition Xrotation Yrotation Zrotation
						JOINT LeftHand
						{
							OFFSET 0.262001 0.000000 0.000044
							CHANNELS 6 Xposition Yposition Zposition Xrotation Yrotation Zrotation
							JOINT LeftHandIndex1
							{
								OFFSET 0.082507 -0.030061 -0.000028
								CHANNELS 3 Xrotation Yrotation Zrotation
								JOINT LeftHandIndex2
								{
									OFFSET 0.033280 -0.004602 0.000048
									CHANNELS 3 Xrotation Yrotation Zrotation
									End Site
									{
										OFFSET 0.025464 -0.003944 0.000004
									}
								}
							}
							JOINT LeftHandMiddle1
							{
								OFFSET 0.088481 -0.008664 0.000015
								CHANNELS 3 Xrotation Yrotation Zrotation
								JOINT LeftHandMiddle2
								{
									OFFSET 0.034019 -0.001373 0.000006
									CHANNELS 3 Xrotation Yrotation Zrotation
									End Site
									{
										OFFSET 0.026769 -0.000745 0.000005
									}
								}
							}
							JOINT LeftHandRing1
							{
								OFFSET 0.085626 0.008930 0.000014
								CHANNELS 3 Xrotation Yrotation Zrotation
								JOINT LeftHandRing2
								{
									OFFSET 0.029129 0.002221 0.000005
									CHANNELS 3 Xrotation Yrotation Zrotation
									End Site
									{
										OFFSET 0.027049 0.001739 0.000005
									}
								}
							}
							JOINT LeftHandPinky1
							{
								OFFSET 0.076700 0.027168 0.000013
								CHANNELS 3 Xrotation Yrotation Zrotation
								JOINT LeftHandPinky2
								{
									OFFSET 0.032485 0.007539 0.000005
									CHANNELS 3 Xrotation Yrotation Zrotation
									End Site
									{
										OFFSET 0.019121 0.004064 0.000003
									}
								}
							}
							JOINT LeftHandThumb1
							{
								OFFSET 0.018711 -0.029540 0.000003
								CHANNELS 3 Xrotation Yrotation Zrotation
								JOINT LeftHandThumb2
								{
									OFFSET 0.024721 -0.023664 0.000004
									CHANNELS 3 Xrotation Yrotation Zrotation
									End Site
									{
										OFFSET 0.024649 -0.014096 0.000004
									}
								}
							}
						}
					}
				}
			}
		}
	}
	JOINT RightUpLeg
	{
		OFFSET -0.115000 0.000000 -0.015985
		CHANNELS 6 Xposition Yposition Zposition Xrotation Yrotation Zrotation
		JOINT RightLeg
		{
			OFFSET 0.000000 0.000000 -0.417140
			CHANNELS 6 Xposition Yposition Zposition Xrotation Yrotation Zrotation
			JOINT RightFoot
			{
				OFFSET 0.000000 0.000000 -0.438030
				CHANNELS 3 Xrotation Yrotation Zrotation
				JOINT RightToeBase
				{
					OFFSET 0.000000 -0.104620 -0.083528
					CHANNELS 6 Xposition Yposition Zposition Xrotation Yrotation Zrotation
					End Site
					{
						OFFSET 0.000000 -0.133871 -0.000951
					}
				}
			}
		}
	}
	JOINT LeftUpLeg
	{
		OFFSET 0.115000 0.000000 -0.015985
		CHANNELS 6 Xposition Yposition Zposition Xrotation Yrotation Zrotation
		JOINT LeftLeg
		{
			OFFSET 0.000000 0.000000 -0.417140
			CHANNELS 6 Xposition Yposition Zposition Xrotation Yrotation Zrotation
			JOINT LeftFoot
			{
				OFFSET 0.000000 0.000000 -0.438030
				CHANNELS 3 Xrotation Yrotation Zrotation
				JOINT LeftToeBase
				{
					OFFSET 0.000000 -0.104620 -0.083528
					CHANNELS 6 Xposition Yposition Zposition Xrotation Yrotation Zrotation
					End Site
					{
						OFFSET 0.000000 -0.133871 -0.000951
					}
				}
			}
		}
	}
}
MOTION
Frames: 4
Frame Time:	0.016667
0 0 0.9905 0 0 0 0 0 0.0999 0 0 0 0 0 0.1523 0 0 0 0 0 0.3376 0 0 0 0 0 0 -0.0433 0 0.2289 0 0 0 -0.1055 0 0 0 0 0 -0.2476 0 0 0 0 0 -0.2624 0 0 0 0 0 0 0 0 0 0 0 0 0 0 0 0 0 0 0 0 0 0 0 0 0 0 0 0 0 0 0 0 0 0 0 0.0434 0 0.2289 0 0 0 0.1055 0 0 0 0 0 0.2483 -0.001 0 0 0 0 0.2622 0 0 0 0 0 0 0 0 0 0 0 0 0 0 0 0 0 0 0 0 0 0 0 0 0 0 0 0 0 0 0 0 0 0 0 -0.1151 0 -0.016 0 0 0 0 0 -0.4175 0 0 0 0 0 0 0 -0.1047 -0.0836 0 0 0 0.1151 0 -0.016 0 0 0 0 0 -0.4175 0 0 0 0 0 0 0 -0.1047 -0.0836 0 0 0 
-0.5936 0.2904 0.9079 -4.325 4.0557 -31.5213 0 -0.0001 0.1 -0.5687 0.03 0.6563 0 -0.0004 0.1526 0.0407 0.0001 0.7383 0 0.0005 0.2935 5.4778 0.4219 2.506 -15.1981 1.6866 2.6135 -0.0433 0.0005 0.2286 -0.1803 -13.8332 -0.0225 -0.1055 0 0 2.0937 -63.8221 -16.8536 -0.2477 0 -0.0001 18.7118 -4.1405 69.6492 -0.2624 0 -0.0001 12.8394 10.0766 -32.0922 5.92 -50.0735 -10.3442 10.8659 -66.5698 8.8192 2.597 -41.8255 2.5957 -0.1413 -31.1085 -0.0787 -0.6214 -28.9529 -5.4161 0.3693 -31.9824 0.208 -0.2122 -24.3431 -3.8435 -4.1801 -26.3237 -0.8235 19.7178 -24.6037 15.451 -0.0034 0.0008 -12.356 0.0434 0.0005 0.2286 -0.0575 13.8358 0.9763 0.1055 0 0 -13.2818 59.5082 40.7128 0.2484 -0.001 0 11.69 9.3559 -60.8791 0.2623 0 0 -16.2453 -12.3566 -9.3237 5.961 49.5428 10.0497 10.2738 65.1768 -8.2302 2.441 40.7038 -1.9067 -0.2518 28.5484 0.1357 -0.2266 27.1266 6.9249 0.2302 29.0736 -0.1957 -0.048 24.4511 6.47 -3.8002 24.2244 0.6533 -5.8881 7.1213 6.7905 0.0004 0 -2.4788 -0.1151 0 -0.016 -3.1151 -2.1604 -3.1064 0 0 -0.4175 42.7455 -1.5774 0.6173 -33.8937 3.0825 -1.5126 0 -0.1047 -0.0836 0 0 0 0.1151 0 -0.016 -6.0363 -6.0362 1.3542 0 0 -0.4175 45.604 -0.2433 0.1023 -33.6198 4.7011 0.6268 0 -0.1047 -0.0836 0 0 0 
-0.5936 0.2904 0.9079 -4.325 4.0557 -31.5213 0 -0.0001 0.1 -0.5687 0.03 0.6563 0 -0.0004 0.1526 0.0407 0.0001 0.7383 0 0.0005 0.2935 5.4778 0.4219 2.506 -15.1981 1.6866 2.6135 -0.0433 0.0005 0.2286 -0.1804 -13.8332 -0.0225 -0.1055 0 0 2.0936 -63.8221 -16.8536 -0.2477 0 -0.0001 18.7118 -4.1406 69.6492 -0.2624 0 -0.0001 12.8394 10.0766 -32.0922 5.92 -50.0735 -10.3442 10.8658 -66.5698 8.8192 2.597 -41.8255 2.5956 -0.1413 -31.1085 -0.0788 -0.6214 -28.9529 -5.4161 0.3693 -31.9824 0.208 -0.2122 -24.3431 -3.8435 -4.1801 -26.3237 -0.8235 19.7177 -24.6037 15.451 -0.0034 0.0008 -12.356 0.0434 0.0005 0.2286 -0.0575 13.8357 0.9763 0.1055 0 0 -13.2819 59.5082 40.7129 0.2484 -0.001 0 11.69 9.3559 -60.8791 0.2623 0 0 -16.2453 -12.3566 -9.3238 5.961 49.5428 10.0497 10.2738 65.1768 -8.2303 2.4409 40.7038 -1.9067 -0.2518 28.5484 0.1357 -0.2266 27.1266 6.925 0.2302 29.0736 -0.1957 -0.048 24.4511 6.47 -3.8002 24.2244 0.6533 -5.8881 7.1213 6.7905 0.0004 0 -2.4788 -0.1151 0 -0.016 -3.1151 -2.1604 -3.1064 0 0 -0.4175 42.7454 -1.5774 0.6173 -33.8937 3.0824 -1.5126 0 -0.1047 -0.0836 0 0 0 0.1151 0 -0.016 -6.0363 -6.0362 1.3542 0 0 -0.4175 45.604 -0.2433 0.1023 -33.6198 4.701 0.6268 0 -0.1047 -0.0836 0 0 0 
-0.5936 0.2904 0.9079 -4.325 4.0557 -31.5213 0 -0.0001 0.1 -0.5687 0.03 0.6563 0 -0.0004 0.1526 0.0407 0.0001 0.7383 0 0.0005 0.2935 5.4778 0.4219 2.506 -15.1981 1.6866 2.6135 -0.0433 0.0005 0.2286 -0.1804 -13.8332 -0.0225 -0.1055 0 0 2.0936 -63.8221 -16.8536 -0.2477 0 -0.0001 18.7118 -4.1406 69.6491 -0.2624 0 -0.0001 12.8394 10.0766 -32.0922 5.92 -50.0735 -10.3442 10.8658 -66.5698 8.8192 2.597 -41.8255 2.5956 -0.1413 -31.1085 -0.0788 -0.6214 -28.9529 -5.4161 0.3693 -31.9824 0.208 -0.2122 -24.3431 -3.8435 -4.1801 -26.3237 -0.8235 19.7177 -24.6037 15.451 -0.0034 0.0008 -12.356 0.0434 0.0005 0.2286 -0.0575 13.8357 0.9763 0.1055 0 0 -13.2819 59.5082 40.7129 0.2484 -0.001 0 11.69 9.3559 -60.8791 0.2623 0 0 -16.2453 -12.3566 -9.3237 5.961 49.5428 10.0497 10.2738 65.1768 -8.2302 2.4409 40.7038 -1.9067 -0.2518 28.5484 0.1357 -0.2266 27.1266 6.925 0.2302 29.0736 -0.1957 -0.048 24.4511 6.47 -3.8002 24.2244 0.6533 -5.8881 7.1213 6.7905 0.0004 0 -2.4788 -0.1151 0 -0.016 -3.1151 -2.1604 -3.1064 0 0 -0.4175 42.7454 -1.5774 0.6173 -33.8937 3.0824 -1.5126 0 -0.1047 -0.0836 -0.0001 0 0 0.1151 0 -0.016 -6.0363 -6.0362 1.3542 0 0 -0.4175 45.604 -0.2433 0.1023 -33.6198 4.701 0.6268 0 -0.1047 -0.0836 0 0 0 
